<?xml version="1.0" encoding="utf-8"?>
<!-- Generator: Adobe Illustrator 26.3.1, SVG Export Plug-In . SVG Version: 6.00 Build 0)  -->
<svg version="1.1" id="Capa_1" xmlns="http://www.w3.org/2000/svg" xmlns:xlink="http://www.w3.org/1999/xlink" x="0px" y="0px"
	 viewBox="0 0 65 65" style="enable-background:new 0 0 65 65;" xml:space="preserve">
<style type="text/css">
	.st0{fill:#FFFFFF;}
</style>
<polygon points="65,65 0,65 0,0 65,0 65,65 "/>
<path class="st0" d="M61.6,38.7c0-3.3-1.6-6-4.6-7c3-0.9,4.6-3.7,4.6-7c0-3.5-1.8-6.4-5.1-7.1V6.8h4.2V3.7h-12v3.1
	c-1.1-2.1-3.3-3.4-5.7-3.3c-3.8-0.1-6.9,2.9-7,6.6h-5.6v2.7h2.5c-0.2,1.3-1.4,2.1-3.2,2.1c-2.3,0-3.2-2.1-3.2-4.2s0.9-4.2,3.2-4.2
	c1.5,0,2.6,0.7,2.7,1.9H36c-0.3-3.5-3.4-5.1-6.2-5.1c-4.2,0-6.9,3.2-6.9,7.3s2.7,7.3,6.9,7.3c1.5,0,2.9-0.6,3.9-1.8l0.2,1.5H36
	l4.7,6.9l-4.8,7h0.9v2.4c-0.8-1.8-2.6-2.4-4.6-2.4h-6.6v14h3.6V41h3c2.2,0,3.9-0.7,4.6-2.5v7.2l0,0v3.1h4.2v10.9h3.7V48.8h3.9
	c-0.6,1.2-0.9,2.5-0.9,3.8c0,4.1,2.5,7.3,6.9,7.3s6.9-3.2,6.9-7.3c0-3.3-1.7-6.1-4.7-7C59.9,44.8,61.6,42,61.6,38.7L61.6,38.7z
	 M31.8,38.2h-2.4v-3.6h2.4c0.9-0.1,1.8,0.5,1.9,1.5c0,0.1,0,0.3,0,0.4C33.7,37.7,32.9,38.2,31.8,38.2L31.8,38.2z M57.9,24.7
	c0,2.1-0.9,4.2-3.3,4.2s-3.3-2.1-3.3-4.2s0.9-4.2,3.3-4.2S57.9,22.6,57.9,24.7z M42.8,6.3c1.8,0,2.6,1,3,3h-6.1
	C39.7,7.6,41.1,6.3,42.8,6.3C42.8,6.3,42.8,6.3,42.8,6.3L42.8,6.3z M40.2,17.7h-4.1v-4.9c0.6,3.2,3.5,5.4,6.8,5.3
	c3,0.2,5.7-1.8,6.4-4.7H46c-0.5,1.2-1.7,1.9-3,1.8c-2.1,0-3.2-1.1-3.4-3.5h9.9c0.1-1.7-0.2-3.4-1-4.9h4.2v10.9c-3.2,0.8-5,3.6-5,7.1
	c0,3.3,1.6,6,4.6,7c-1.4,0.4-2.6,1.4-3.4,2.6v-2.7h0.9l-4.7-7l4.8-7h-4.2l-2.7,3.9L40.2,17.7L40.2,17.7z M42.9,27.8l2.4,3.9v5.1
	h-4.8v-5.1L42.9,27.8L42.9,27.8z M40.5,45.7V40h4.8v5.8H40.5z M48.9,48.4v-2.6l0,0V43c0.8,1.3,2.1,2.2,3.5,2.7
	C51,46.1,49.7,47.1,48.9,48.4z M54.7,56.8c-2.4,0-3.3-2.1-3.3-4.2s0.9-4.2,3.3-4.2s3.3,2.1,3.3,4.2S57,56.8,54.7,56.8z M54.7,42.8
	c-2.4,0-3.3-2.1-3.3-4.2s0.9-4.2,3.3-4.2s3.3,2.1,3.3,4.2S57,42.8,54.7,42.8z"/>
</svg>
